<svg width="20" height="24" viewBox="0 0 20 24" fill="none" xmlns="http://www.w3.org/2000/svg">
<path d="M10.0597 9.6C7.34887 9.55804 5.27806 7.37884 5.25972 4.8C5.3045 2.11334 7.50044 0.01884 10.0597 0C12.7729 0.1026 14.8404 2.1794 14.8597 4.8C14.8064 7.48878 12.6216 9.5818 10.0597 9.6ZM13.9406 10.5958C17.3524 10.6356 19.0824 13.6284 19.0982 16.6211V24H15.7535L15.7535 17.5149C15.672 17.0666 15.3684 16.9146 15.0902 16.9585C14.8298 16.9997 14.5916 17.2125 14.579 17.5149V24H5.2856V17.5149C5.21446 17.0882 4.94304 16.9242 4.67898 16.9407C4.39622 16.9585 4.12192 17.1834 4.11112 17.5149V24H0.817524V16.6211C0.797924 13.4316 2.81554 10.6194 6.00026 10.5958H13.9406Z" fill="black"/>
</svg>
